<?xml version="1.0" standalone="no"?>
<!DOCTYPE svg PUBLIC "-//W3C//DTD SVG 20010904//EN"
 "http://www.w3.org/TR/2001/REC-SVG-20010904/DTD/svg10.dtd">
<svg version="1.0" xmlns="http://www.w3.org/2000/svg"
 width="1280.000000pt" height="640.000000pt" viewBox="0 0 1280.000000 640.000000"
 preserveAspectRatio="xMidYMid meet">
<metadata>
Created by potrace 1.15, written by Peter Selinger 2001-2017
</metadata>
<g transform="translate(0.000000,640.000000) scale(0.100000,-0.100000)"
fill="#FFFFFF" stroke="none">
<path d="M7078 4583 l-128 -128 0 -505 c-1 -428 -3 -508 -15 -524 -12 -16 -15
-54 -15 -173 l0 -153 -33 0 c-28 0 -45 13 -119 88 l-88 87 -2 185 c-3 183 -3
185 -25 188 -20 3 -23 9 -23 48 0 37 -3 44 -20 44 -18 0 -20 7 -20 60 0 46 -3
60 -14 60 -11 0 -16 15 -18 53 l-3 52 -52 3 -53 3 0 -56 c0 -40 -4 -57 -15
-61 -11 -4 -15 -21 -15 -55 0 -42 -3 -49 -20 -49 -19 0 -20 -7 -20 -220 l0
-220 -29 0 c-28 0 -30 -2 -33 -47 -3 -45 -5 -48 -37 -54 -20 -4 -52 -25 -82
-55 l-49 -48 0 247 c0 238 -1 247 -19 247 -14 0 -21 8 -23 28 -3 26 -5 27 -58
27 -53 0 -55 -1 -58 -27 -3 -22 -9 -28 -28 -28 l-24 0 0 -145 0 -145 -55 0
-55 0 0 71 0 70 -42 -3 c-35 -2 -43 -7 -43 -23 0 -13 -8 -21 -22 -23 -20 -3
-23 -9 -23 -48 l0 -44 -89 0 -88 0 -47 50 c-38 41 -46 56 -46 88 0 30 -7 45
-35 72 -26 25 -35 42 -35 67 0 31 -2 33 -35 33 -31 0 -35 3 -35 25 0 24 -3 25
-60 25 -57 0 -60 -1 -60 -24 0 -17 -6 -26 -21 -28 -20 -3 -21 -9 -22 -138 l-2
-135 -27 -3 c-27 -3 -28 -5 -28 -66 0 -62 0 -62 -55 -116 l-55 -54 0 281 0
282 -72 3 -73 3 -3 38 -3 37 -93 0 -93 0 -52 -54 -51 -55 0 -190 0 -191 -38 0
c-26 0 -45 -7 -56 -19 -10 -11 -32 -21 -50 -23 -31 -3 -31 -3 -34 -66 l-3 -63
-77 3 -77 3 -5 120 -5 120 -57 3 -58 3 0 369 0 370 -92 0 c-86 0 -94 -2 -120
-27 -28 -26 -28 -28 -28 -150 l0 -124 -42 3 -43 3 -3 337 -2 337 -78 3 -77 3
-3 58 c-2 31 -8 57 -13 57 -6 0 -54 -43 -107 -96 l-97 -96 -5 -516 -5 -517
-55 0 -55 0 -3 93 c-2 73 -6 92 -17 92 -13 0 -15 24 -15 140 l0 140 -30 0
c-20 0 -39 9 -54 25 -21 23 -31 25 -103 25 -70 0 -82 -3 -101 -23 -21 -22 -22
-32 -22 -215 l0 -192 -60 0 -60 0 0 -95 0 -96 -87 3 -88 3 -3 403 -2 402 -109
0 -110 0 -3 -32 c-2 -25 -8 -34 -25 -36 l-23 -3 0 -400 0 -399 -29 0 c-28 0
-30 -2 -33 -47 l-3 -48 -57 -3 -58 -3 0 76 c0 73 -1 75 -25 75 l-25 0 0 100 0
100 -30 0 c-28 0 -30 2 -30 40 0 36 -3 40 -24 40 -21 0 -25 6 -28 33 l-3 32
-65 0 c-51 0 -65 -3 -65 -15 0 -10 -13 -17 -40 -20 l-40 -5 -3 -98 -3 -98 -42
3 -42 3 -3 108 -3 107 -58 0 c-48 0 -61 -4 -81 -25 -20 -21 -33 -25 -82 -25
l-58 0 0 -180 c0 -137 -3 -180 -12 -182 -7 0 -20 -1 -28 -2 -9 -1 -16 -13 -18
-34 l-3 -33 -112 3 -112 3 -3 213 c-2 179 -5 212 -17 212 -10 0 -15 10 -15 30
0 30 -1 30 -55 30 -52 0 -55 -2 -55 -24 0 -18 -6 -25 -22 -28 -17 -2 -24 -11
-26 -30 -2 -16 -7 -28 -12 -28 -6 0 -11 -83 -12 -187 l-3 -188 -65 0 -65 0 -5
74 -5 73 -85 2 -85 1 -3 273 c-2 264 -3 272 -22 272 -13 0 -20 7 -20 20 0 18
-7 20 -61 20 -33 0 -58 -4 -55 -9 11 -18 -6 -41 -30 -41 l-24 0 0 -170 0 -170
-55 0 -55 0 -2 -172 -3 -173 -32 -3 -33 -3 0 220 0 221 -41 0 c-32 0 -42 -4
-46 -20 -3 -11 -14 -20 -24 -20 -17 0 -19 -13 -21 -197 -3 -197 -3 -198 -25
-201 l-23 -3 0 -695 0 -694 6400 0 6400 0 0 870 0 870 -70 0 -70 0 -2 -172 -3
-173 -75 0 -75 0 -3 333 -2 332 -53 0 c-48 0 -56 -3 -90 -38 l-37 -38 0 -182
0 -182 -29 0 c-39 0 -81 -49 -81 -96 0 -27 -4 -34 -20 -34 -19 0 -20 7 -20
210 l0 210 -48 0 c-64 0 -90 -26 -94 -95 l-3 -50 -57 -3 -58 -3 -2 193 c-3
185 -4 193 -23 193 -13 0 -21 8 -23 23 -3 19 -9 23 -35 20 -27 -2 -33 -8 -35
-30 -3 -25 -8 -28 -39 -28 l-36 0 5 -317 c3 -175 3 -342 1 -370 l-6 -53 -118
0 -119 0 0 135 0 135 -45 0 -44 0 -3 118 -3 117 -87 3 -88 3 0 -226 0 -225
-35 0 -35 0 0 119 c0 117 -1 120 -26 140 -20 15 -41 21 -80 21 l-54 0 0 135 0
135 -65 0 -65 0 0 -149 c0 -133 -2 -151 -20 -174 -15 -19 -20 -40 -20 -91 l0
-66 -55 0 -54 0 -3 148 -3 147 -62 3 -63 3 0 -30 c0 -29 -2 -30 -47 -33 l-48
-3 -3 -117 -3 -118 -54 0 -55 0 0 135 0 135 -53 0 c-44 0 -58 -4 -77 -25 -20
-21 -33 -25 -80 -25 -70 0 -100 -25 -100 -83 l0 -37 -55 0 -54 0 -3 133 -3
132 -97 3 -98 3 0 -85 0 -85 -72 -3 -73 -3 -3 -117 -3 -118 -89 0 -90 0 0 35
c0 28 -8 42 -45 76 -43 39 -45 44 -45 95 l0 54 -70 0 -70 0 0 -78 c0 -64 -4
-82 -18 -95 -32 -29 -74 -21 -115 21 -35 35 -37 42 -37 100 l0 62 -35 0 -35 0
0 140 0 140 -80 0 -80 0 0 -320 0 -321 -62 3 -63 3 -3 141 -3 141 -29 28 c-29
28 -30 32 -30 118 0 118 -5 127 -80 127 l-60 0 0 -173 0 -173 -30 -29 -30 -29
0 92 0 92 -30 0 c-25 0 -30 4 -30 24 0 32 -7 36 -59 29 -31 -4 -45 -11 -48
-24 -4 -13 -15 -19 -34 -19 l-29 0 -2 -172 -3 -173 -60 0 -60 0 -3 213 -2 212
-28 0 c-20 0 -41 14 -77 50 -47 47 -52 50 -102 50 -50 0 -53 -1 -53 -25 0 -22
-4 -25 -40 -25 l-40 0 0 -40 0 -40 -55 0 c-54 0 -55 0 -55 -30 0 -27 -3 -30
-30 -30 l-30 0 0 -170 0 -170 -74 0 c-58 0 -75 3 -80 16 -3 9 -6 71 -6 139 0
97 -3 125 -15 135 -11 9 -15 34 -15 96 l0 84 -60 0 -60 0 -2 575 -3 575 -127
-127z"/>
</g>
</svg>
